<?xml version="1.0" encoding="utf-8"?>
<!-- Generator: Adobe Illustrator 21.0.0, SVG Export Plug-In . SVG Version: 6.00 Build 0)  -->
<svg version="1.1" id="Слой_1" xmlns="http://www.w3.org/2000/svg" xmlns:xlink="http://www.w3.org/1999/xlink" x="0px" y="0px"
	 viewBox="0 0 104 104" style="enable-background:new 0 0 104 104;" xml:space="preserve">
<style type="text/css">
	.st0{fill:none;stroke:#252525;stroke-width:2;stroke-miterlimit:10;}
	.st1{fill:none;stroke:#252525;stroke-width:2;stroke-linecap:round;stroke-linejoin:round;stroke-miterlimit:10;}
</style>
<g>
	<path class="st0" d="M82.4,26.9c0.9-4.1,0.1-6.4-6.3-8.5l-8.2-2.8c-4.2-1.5-7.1-5.5-7.1-10.1V2.1c0-0.5-0.4-0.9-0.9-0.9H41
		c-0.5,0-0.9,0.4-0.9,0.9v3.5c0,4.6-2.8,8.6-7,10.1l-6.3,2.2c-5.9,2.1-5.9,4.9-5,9.1l6.5,25.1C29,55,29.1,58,28.5,61l-5.5,27.4
		c-0.9,4.9,2.7,9.5,7.6,9.5h9.4h20.8h9.5c4.8,0,8.5-4.5,7.6-9.4l-4.6-25.8c-0.7-3.7-0.4-7.5,0.8-11.1L82.4,26.9z"/>
	<path class="st0" d="M57.3,102.8H46.7c-0.6,0-1-0.4-1-1v-4h12.7v4C58.3,102.4,57.9,102.8,57.3,102.8z"/>
	<path class="st1" d="M75.9,24.5c-0.8-0.5-1.9-0.9-3.3-1.4l-7-2.4c-2.7-0.9-4.8-3.1-5.6-5.8"/>
	<path class="st1" d="M78.2,27.3c-0.1-0.4-0.3-0.9-0.5-1.3"/>
	<line class="st1" x1="71" y1="51.4" x2="78" y2="30.4"/>
</g>
</svg>
