<?xml version="1.0" encoding="utf-8"?>
<!-- Generator: Adobe Illustrator 21.0.0, SVG Export Plug-In . SVG Version: 6.00 Build 0)  -->
<svg version="1.1" id="Слой_1" xmlns="http://www.w3.org/2000/svg" xmlns:xlink="http://www.w3.org/1999/xlink" x="0px" y="0px"
	 viewBox="0 0 215 165" style="enable-background:new 0 0 215 165;" xml:space="preserve">
<style type="text/css">
	.st0{fill:none;stroke:#020202;stroke-width:4;stroke-linecap:round;stroke-linejoin:round;stroke-miterlimit:10;}
	.st1{fill:none;stroke:#020202;stroke-width:4;stroke-miterlimit:10;}
	.st2{fill:#FFFFFF;stroke:#020202;stroke-width:4;stroke-linecap:round;stroke-linejoin:round;stroke-miterlimit:10;}
</style>
<g>
	<line class="st0" x1="49.1" y1="78.6" x2="20.4" y2="66.4"/>
	<path class="st0" d="M163.5,120.2l41.9,17.8l5.2,5.1c0.3,0.3,0.1,0.9-0.4,0.9l-7.3-0.2l-42.5-18"/>
	<line class="st0" x1="22.8" y1="60.6" x2="51" y2="72.5"/>
	<ellipse transform="matrix(0.3904 -0.9206 0.9206 0.3904 -47.0446 49.1831)" class="st0" cx="13.6" cy="60.1" rx="9.2" ry="9.2"/>
</g>
<g>
	<line class="st0" x1="60" y1="56.3" x2="23.7" y2="22.9"/>
	<path class="st0" d="M154,134.4l19.4,17.9l3.2,6.6c0.2,0.4-0.2,0.9-0.6,0.7l-6.8-2.6l-19.5-18"/>
	<line class="st0" x1="27.6" y1="17.9" x2="64.1" y2="51.5"/>
	<ellipse transform="matrix(0.6778 -0.7353 0.7353 0.6778 -4.3808 18.6022)" class="st0" cx="19" cy="14.3" rx="9.2" ry="9.2"/>
</g>
<g>
	
		<ellipse transform="matrix(0.9869 -0.1614 0.1614 0.9869 -13.6943 18.7304)" class="st1" cx="108.4" cy="93.6" rx="61.1" ry="61.1"/>
	<path class="st1" d="M73.6,143.9c0,0-18.4-74.9,25-110.6"/>
	<path class="st1" d="M113.4,32.7c0,0-47.8,39.2-24.3,119"/>
	<path class="st1" d="M105.2,154.7c0,0-25-71.3,24.8-118.3"/>
	<path class="st1" d="M107,69.7c0,0,23.6-4.6,36.7-26"/>
	<path class="st1" d="M159,59.3c0,0-28.3,32-58.5,33"/>
	<path class="st1" d="M166.8,75.4c0,0-20.8,29.9-67.9,35.6"/>
	<path class="st1" d="M164.9,117.2c0,0-18.4-2.2-32.2-15.6"/>
	<path class="st1" d="M107.9,109.7c0,0,15.1,19.3,45.1,25.8"/>
	<path class="st1" d="M99.8,130.3c0,0,15.3,13.1,32.8,19.9"/>
	<path class="st1" d="M70.4,45.8c0,0,1.1,11.1,6.4,18.9"/>
	<path class="st1" d="M81.5,37.9c0,0,0,6.3,3.3,10.8"/>
	<path class="st1" d="M57.8,128c0,0,8,1.8,13,0.5"/>
	<path class="st1" d="M49,109.2c0,0,10.3,3.8,20.8,2.6"/>
	<path class="st1" d="M70,97.7c-13-0.4-22.7-2.7-22.7-2.7"/>
	<path class="st1" d="M56.9,57.9"/>
	<path class="st1" d="M56,62.2c0,0,0.7,19.3,14.3,32.2"/>
</g>
<path class="st2" d="M51,72.5"/>
<path class="st2" d="M49.1,78.6"/>
<path class="st2" d="M51,72.5"/>
</svg>
