<?xml version="1.0" encoding="utf-8"?>
<!-- Generator: Adobe Illustrator 21.0.0, SVG Export Plug-In . SVG Version: 6.00 Build 0)  -->
<svg version="1.1" id="Слой_1" xmlns="http://www.w3.org/2000/svg" xmlns:xlink="http://www.w3.org/1999/xlink" x="0px" y="0px"
	 viewBox="0 0 220 145" style="enable-background:new 0 0 220 145;" xml:space="preserve">
<style type="text/css">
	.st0{fill:none;stroke:#FFFFFF;stroke-width:4;stroke-linecap:round;stroke-linejoin:round;stroke-miterlimit:10;}
	.st1{fill:none;stroke:#FFFFFF;stroke-width:4;stroke-miterlimit:10;}
	.st2{fill:#FFFFFF;stroke:#FFFFFF;stroke-width:4;stroke-linecap:round;stroke-linejoin:round;stroke-miterlimit:10;}
</style>
<g>
	<line class="st0" x1="49.3" y1="72.6" x2="19.4" y2="63.4"/>
	<path class="st0" d="M167.3,102.2l43.5,13.4l5.7,4.6c0.4,0.3,0.2,0.9-0.3,0.9l-7.3,0.6l-44.2-13.6"/>
	<line class="st0" x1="21.3" y1="57.3" x2="50.5" y2="66.3"/>
	<ellipse transform="matrix(0.2936 -0.9559 0.9559 0.2936 -46.7722 52.331)" class="st0" cx="12" cy="57.8" rx="9.2" ry="9.2"/>
</g>
<g>
	<line class="st0" x1="57.8" y1="49.3" x2="18.2" y2="19.7"/>
	<path class="st0" d="M159.3,117.3l21.1,15.8l3.8,6.2c0.2,0.4-0.1,0.9-0.6,0.8l-7.1-1.9l-21.3-15.9"/>
	<line class="st0" x1="21.5" y1="14.3" x2="61.4" y2="44.1"/>
	<ellipse transform="matrix(0.5985 -0.8011 0.8011 0.5985 -4.2612 14.8604)" class="st0" cx="12.7" cy="11.7" rx="9.2" ry="9.2"/>
</g>
<g>
	<ellipse transform="matrix(0.965 -0.2621 0.2621 0.965 -17.4996 31.6198)" class="st1" cx="109.8" cy="81.4" rx="61.1" ry="61.1"/>
	<path class="st1" d="M80.3,135c0,0-26-72.6,13.5-112.6"/>
	<path class="st1" d="M108.4,20.3c0,0-43.6,43.9-11.9,120.8"/>
	<path class="st1" d="M112.8,142.5c0,0-32.2-68.4,12.5-120.2"/>
	<path class="st1" d="M105.9,57.7c0,0,23-7,33.8-29.7"/>
	<path class="st1" d="M156.6,42c0,0-24.8,34.8-54.8,38.8"/>
	<path class="st1" d="M166,57.2c0,0-17.6,31.9-63.9,42.4"/>
	<path class="st1" d="M168.3,99c0,0-18.5-0.3-33.7-12.2"/>
	<path class="st1" d="M110.9,97.4c0,0,17,17.6,47.6,21"/>
	<path class="st1" d="M105,118.8c0,0,16.5,11.5,34.6,16.4"/>
	<path class="st1" d="M67,37.7c0,0,2.2,10.9,8.3,18.1"/>
	<path class="st1" d="M77.2,28.7c0,0,0.7,6.3,4.4,10.4"/>
	<path class="st1" d="M63,120.8c0,0,8.2,1,13-0.9"/>
	<path class="st1" d="M52.3,103c0,0,10.7,2.7,20.9,0.5"/>
	<path class="st1" d="M72,89.4C59,90.3,49.1,89,49.1,89"/>
	<path class="st1" d="M54.8,51.2"/>
	<path class="st1" d="M54.4,55.5c0,0,2.6,19.1,17.5,30.6"/>
</g>
<path class="st2" d="M50.5,66.3"/>
<path class="st2" d="M49.3,72.6"/>
<path class="st2" d="M50.5,66.3"/>
</svg>
