<?xml version="1.0" encoding="utf-8"?>
<!-- Generator: Adobe Illustrator 21.0.0, SVG Export Plug-In . SVG Version: 6.00 Build 0)  -->
<svg version="1.1" id="Слой_1" xmlns="http://www.w3.org/2000/svg" xmlns:xlink="http://www.w3.org/1999/xlink" x="0px" y="0px"
	 viewBox="0 0 104 104" style="enable-background:new 0 0 104 104;" xml:space="preserve">
<style type="text/css">
	.st0{fill:none;stroke:#252525;stroke-width:2;stroke-linecap:round;stroke-linejoin:round;stroke-miterlimit:10;}
</style>
<g>
	<g>
		<path class="st0" d="M81.9,86.1H13.7c-1.1,0-1.8-1.2-1.2-2.1l3.4-5.8l0,0c-2.8-1.1-4.6-3.8-4.6-6.8v-4.8c0-4.1,3.3-7.4,7.4-7.4
			h63.4c6,0,10.9,4.9,10.9,10.9v5.2C92.8,81.3,87.9,86.1,81.9,86.1z"/>
		<path class="st0" d="M24.6,67.6"/>
		<path class="st0" d="M73.5,68.3h5.6c2.9,0,5.2,1.9,5.2,4.7l0,0c0,2.9-2.3,5.2-5.2,5.2H15.8"/>
		<line class="st0" x1="63.9" y1="68.3" x2="69.3" y2="68.3"/>
		<line class="st0" x1="20.9" y1="68.3" x2="59.6" y2="68.3"/>
	</g>
	<g>
		<path class="st0" d="M81.9,59.2H13.7c-1.1,0-1.8-1.2-1.2-2.1l3.4-5.8l0,0c-2.8-1.1-4.6-3.8-4.6-6.8v-4.8c0-4.1,3.3-7.4,7.4-7.4
			h63.4c6,0,10.9,4.9,10.9,10.9v5.2C92.8,54.4,87.9,59.2,81.9,59.2z"/>
		<path class="st0" d="M24.6,40.7"/>
		<path class="st0" d="M73.5,41.5h5.6c2.9,0,5.2,1.9,5.2,4.7v0c0,2.9-2.3,5.2-5.2,5.2H15.8"/>
		<line class="st0" x1="63.9" y1="41.5" x2="69.3" y2="41.5"/>
		<line class="st0" x1="20.9" y1="41.5" x2="59.6" y2="41.5"/>
	</g>
	<path class="st0" d="M85.6,32.3H14c-0.8,0-1.3-0.9-0.9-1.6l2.8-4.6l-1.5-0.8c-1.3-0.7-2.2-2-2.2-3.5l0,0c0-2.2,1.8-4,4-4h69.5
		c4,0,7.2,3.2,7.2,7.2v0.1C92.8,29.1,89.6,32.3,85.6,32.3z"/>
	<line class="st0" x1="40.3" y1="26.2" x2="80.1" y2="26.2"/>
	<line class="st0" x1="31.8" y1="26.2" x2="35.2" y2="26.2"/>
	<line class="st0" x1="15.8" y1="26.2" x2="29.1" y2="26.2"/>
</g>
</svg>
