<?xml version="1.0" encoding="utf-8"?>
<!-- Generator: Adobe Illustrator 21.0.0, SVG Export Plug-In . SVG Version: 6.00 Build 0)  -->
<svg version="1.1" id="Слой_1" xmlns="http://www.w3.org/2000/svg" xmlns:xlink="http://www.w3.org/1999/xlink" x="0px" y="0px"
	 viewBox="0 0 104 104" style="enable-background:new 0 0 104 104;" xml:space="preserve">
<style type="text/css">
	.st0{fill:none;stroke:#252525;stroke-width:2;stroke-miterlimit:10;}
	.st1{fill:none;stroke:#252525;stroke-width:2;stroke-linecap:round;stroke-linejoin:round;stroke-miterlimit:10;}
	.st2{fill:#252525;stroke:#252525;stroke-width:2;stroke-linecap:round;stroke-linejoin:round;stroke-miterlimit:10;}
	.st3{fill:#252525;}
</style>
<g>
	<g>
		<path class="st0" d="M59.9,104h-11c-0.6,0-1-0.4-1-1v-4.1h13v4.1C60.9,103.6,60.5,104,59.9,104z"/>
		<polygon class="st1" points="73.6,19 35.2,19 40.7,9.2 68.1,9.2 		"/>
		<polygon class="st1" points="22.4,85 86,85 77,98.9 31.8,98.9 		"/>
		<polygon class="st1" points="86,85 22.4,85 35.2,19 73.6,19 		"/>
		<path class="st0" d="M59.9,9.2h-11c-0.6,0-1-0.4-1-1V0h13v8.2C60.9,8.7,60.5,9.2,59.9,9.2z"/>
		<path class="st2" d="M69.9,20"/>
		<path class="st1" d="M72.6,17.1c1.3-0.9,7.2-5.8,11.9-2.7c2.9,1.9,3,6.3,2.9,11.6c-0.2,22.7-4.6,36.9-0.2,38.6
			c0.4,0.2,3.2,0,3.9-5.7"/>
		<path class="st3" d="M88.1,11.9c-0.4-0.4-0.9-0.5-1.5-0.3l-0.3,0.1c-0.5,0.2-0.9,0.5-1.2,0.8L12.9,78.7c-0.2,0.2-0.2,0.5,0,0.7
			c0.1,0.1,0.2,0.2,0.3,0.2c0.1,0,0.2,0,0.3-0.1l74.1-65c0.3-0.3,0.5-0.6,0.7-1c0,0,0,0,0,0l0-0.1C88.6,12.8,88.5,12.3,88.1,11.9z
			 M85.7,15.2c-1,1-2,1.5-2.3,1.2c-0.3-0.3,0.2-1.3,1.2-2.3c1-1,2-1.5,2.3-1.2C87.2,13.2,86.6,14.2,85.7,15.2z"/>
		<line class="st1" x1="62.1" y1="49.1" x2="74.6" y2="61.6"/>
		<line class="st1" x1="58.5" y1="45.5" x2="60.1" y2="47.1"/>
		<line class="st1" x1="35.2" y1="22.2" x2="49.9" y2="36.9"/>
		<path class="st1" d="M72.4,68.3"/>
		<path class="st1" d="M59.3,55.1"/>
		<path class="st1" d="M57.7,53.6"/>
		<path class="st1" d="M52.5,48.4"/>
		<path class="st1" d="M41,36.9"/>
		<line class="st1" x1="45.5" y1="57.5" x2="61.7" y2="73.7"/>
		<line class="st1" x1="51.9" y1="51.9" x2="77.8" y2="77.8"/>
		<line class="st1" x1="42.9" y1="42.9" x2="44.1" y2="44"/>
		<line class="st1" x1="33" y1="33" x2="41.4" y2="41.4"/>
	</g>
</g>
</svg>
