<svg width="30" height="31" viewBox="0 0 30 31" fill="none" xmlns="http://www.w3.org/2000/svg">
<path d="M26.6169 3.01863C25.8322 2.31032 22.6566 0.0522025 15.5762 0.0219328C15.5762 0.0219328 7.22928 -0.468435 3.16395 3.18814C0.902677 5.40387 0.105673 8.65483 0.0191764 12.6807C-0.0673201 16.7066 -0.172352 24.2497 7.24782 26.296H7.254L7.24782 29.4198C7.24782 29.4198 7.19839 30.6851 8.051 30.9393C9.0766 31.2541 9.68208 30.2916 10.6644 29.2563C11.2019 28.6873 11.9433 27.8518 12.5056 27.2162C17.5842 27.6339 21.4827 26.6774 21.9275 26.5381C22.9531 26.2112 28.7546 25.4847 29.6937 17.9416C30.6699 10.1562 29.2241 5.24042 26.6169 3.01863V3.01863ZM27.4757 17.3725C26.6787 23.6686 21.977 24.0681 21.112 24.3406C20.7413 24.4556 17.3123 25.291 13.006 25.0186C13.006 25.0186 9.79329 28.8144 8.7924 29.8012C8.46495 30.1221 8.10661 30.0918 8.11278 29.4561C8.11278 29.0384 8.1375 24.2679 8.1375 24.2679C8.13132 24.2679 8.13132 24.2679 8.1375 24.2679C1.84796 22.5607 2.21866 16.1375 2.28662 12.7776C2.35458 9.41763 3.00331 6.66309 4.91859 4.81059C8.35992 1.75336 15.4465 2.2074 15.4465 2.2074C21.4333 2.23162 24.3 3.99936 24.9673 4.59265C27.1729 6.44515 28.2974 10.8766 27.4757 17.3725V17.3725ZM18.8878 12.4809C18.9125 13.0016 18.1155 13.0379 18.0908 12.5172C18.0228 11.1854 17.3865 10.5376 16.0766 10.465C15.5453 10.4347 15.5947 9.65373 16.1199 9.684C17.8437 9.77481 18.8013 10.7434 18.8878 12.4809ZM20.142 13.165C20.2038 10.5981 18.5665 8.58824 15.4588 8.36424C14.9337 8.32792 14.9893 7.54696 15.5144 7.58329C19.0979 7.83755 21.007 10.2531 20.939 13.1832C20.9328 13.7038 20.1296 13.6796 20.142 13.165V13.165ZM23.0458 13.9762C23.052 14.4969 22.2488 14.5029 22.2488 13.9823C22.2117 9.04834 18.8569 6.36039 14.7854 6.33012C14.2602 6.32407 14.2602 5.54917 14.7854 5.54917C19.3388 5.57944 23.0026 8.66089 23.0458 13.9762V13.9762ZM22.3477 19.9151V19.9272C21.6804 21.0775 20.4324 22.3488 19.1473 21.9432L19.1349 21.925C17.8313 21.5679 14.7607 20.0181 12.8207 18.5046C11.8198 17.7297 10.9054 16.8155 10.2011 15.9377C9.56469 15.1567 8.92215 14.2305 8.29813 13.1166C6.98215 10.7858 6.69177 9.74454 6.69177 9.74454C6.27782 8.48532 7.56909 7.26243 8.74915 6.6086H8.76151C9.32992 6.31802 9.87361 6.41488 10.2381 6.84471C10.2381 6.84471 11.0042 7.74069 11.3317 8.18263C11.6406 8.59429 12.0546 9.25417 12.2708 9.62346C12.6477 10.2833 12.4129 10.9553 12.0422 11.2338L11.3008 11.815C10.9239 12.1116 10.9734 12.6625 10.9734 12.6625C10.9734 12.6625 12.0731 16.7368 16.1817 17.766C16.1817 17.766 16.7439 17.8144 17.0466 17.4451L17.6398 16.7187C17.924 16.3554 18.6098 16.1254 19.2832 16.4947C20.1914 16.9971 21.3468 17.7781 22.1129 18.4864C22.5454 18.8315 22.6442 19.3582 22.3477 19.9151Z" fill="black"/>
</svg>
