<svg width="30" height="29" viewBox="0 0 30 29" fill="none" xmlns="http://www.w3.org/2000/svg">
<path d="M25.5067 4.21406C22.7009 1.49531 18.9643 0 14.9933 0C6.79687 0 0.127232 6.44732 0.127232 14.3705C0.127232 16.9016 0.810268 19.3743 2.10937 21.5558L0 29L7.8817 26.9998C10.0513 28.1455 12.4955 28.7475 14.9866 28.7475H14.9933C23.183 28.7475 30 22.3002 30 14.377C30 10.5384 28.3125 6.93281 25.5067 4.21406V4.21406ZM14.9933 26.3266C12.7701 26.3266 10.5937 25.7504 8.69866 24.6629L8.25 24.404L3.57589 25.5886L4.82143 21.1804L4.52679 20.7272C3.28795 18.8241 2.63839 16.6297 2.63839 14.3705C2.63839 7.78728 8.18304 2.42746 15 2.42746C18.3013 2.42746 21.4018 3.67031 23.7321 5.92946C26.0625 8.18862 27.4955 11.1857 27.4888 14.377C27.4888 20.9667 21.8036 26.3266 14.9933 26.3266V26.3266ZM21.7701 17.3806C21.4018 17.1993 19.5737 16.3319 19.2321 16.2154C18.8906 16.0924 18.6429 16.0342 18.3951 16.3967C18.1473 16.7592 17.4375 17.5618 17.2165 17.8078C17.0022 18.0473 16.7812 18.0797 16.4129 17.8984C14.2299 16.8433 12.7969 16.0147 11.3571 13.6261C10.9754 12.9917 11.7388 13.0371 12.4487 11.6647C12.5692 11.4252 12.5089 11.2181 12.4152 11.0368C12.3214 10.8556 11.5781 9.08839 11.2701 8.36987C10.9687 7.67076 10.6607 7.76786 10.433 7.75491C10.2187 7.74196 9.97098 7.74196 9.72321 7.74196C9.47545 7.74196 9.07366 7.83259 8.73214 8.18862C8.39062 8.55112 7.43304 9.41853 7.43304 11.1857C7.43304 12.9529 8.76563 14.6618 8.94643 14.9013C9.13393 15.1408 11.5647 18.7658 15.2946 20.3259C17.6518 21.3098 18.5759 21.394 19.7545 21.2257C20.471 21.1221 21.9509 20.3583 22.2589 19.5167C22.567 18.6752 22.567 17.9567 22.4732 17.8078C22.3862 17.646 22.1384 17.5554 21.7701 17.3806Z" fill="black"/>
</svg>
